<svg width="6.6146mm" height="6.5709mm" version="1.1" viewBox="0 0 6.6146 6.5709" xml:space="preserve" xmlns="http://www.w3.org/2000/svg"><g transform="translate(-60.837 -69.704)"><path d="m63.972 76.257c-0.23054-0.02641-0.52079-0.11101-0.86322-0.25158-0.78655-0.3229-1.0455-0.48203-1.4173-0.87099-0.1956-0.2046-0.27067-0.30268-0.41284-0.53939-0.39974-0.66556-0.53745-1.5016-0.37629-2.2843 0.32656-1.586 1.7498-2.7084 3.2961-2.5995 0.37721 0.02657 0.75071 0.13119 1.4234 0.39875 0.86024 0.34216 1.4923 1.0774 1.7324 2.0152 0.0733 0.28631 0.09678 0.49156 0.09677 0.84578-8e-6 0.6644-0.20334 1.3155-0.59116 1.8928-0.65181 0.97042-1.7891 1.5191-2.8878 1.3933zm0.8766-0.3361c1.0307-0.23981 1.8414-1.006 2.1735-2.0542 0.23392-0.73831 0.18606-1.5003-0.13767-2.1919-0.07906-0.16892-0.0975-0.19151-0.17146-0.21008-0.06346-0.01593-0.06237 1.32e-4 0.01448 0.21236 0.15497 0.4279 0.20885 0.76778 0.19424 1.2253-0.01567 0.49058-0.10213 0.85239-0.30768 1.2875-0.1595 0.33763-0.32614 0.57572-0.60341 0.86209-0.43242 0.4466-0.9861 0.7515-1.5905 0.87587-0.09439 0.01942-0.17608 0.0402-0.18155 0.04618-0.02464 0.02697 0.43972-0.01342 0.6101-0.05307zm-0.45411-0.09581c0.4492-0.09271 0.88007-0.294 1.2456-0.58193 0.20181-0.15895 0.50358-0.48401 0.64327-0.69291 0.63192-0.94501 0.71514-2.1114 0.22139-3.1025-0.22531-0.4523-0.61766-0.89485-0.91565-1.0328-0.48329-0.22377-1.1073-0.26077-1.6991-0.10075-0.47308 0.12792-1.0149 0.46991-1.3496 0.85185-1.0451 1.1927-1.0667 2.9267-0.05022 4.0325 0.2564 0.27892 0.69585 0.56012 1.017 0.65077 0.13202 0.03727 0.65908 0.02291 0.88721-0.02417zm-0.37821-0.52774c0.0062-0.0873 0.01578-0.16602 0.02128-0.17494 0.02442-0.03952 0.04254 0.01328 0.04254 0.12397 0 0.12825-0.0212 0.20969-0.05458 0.20969-0.01503 0-0.0175-0.04243-0.0092-0.15873zm-0.97163-0.08998c-0.06581-0.03814-0.09159-0.08641-0.07864-0.14726 0.0057-0.02673 0.01643-0.02128 0.06589 0.03355 0.0967 0.10718 0.12563 0.07488 0.0352-0.0393-0.06292-0.07945-0.06583-0.12102-0.01197-0.17161 0.04517-0.04243 0.08325-0.04743 0.13975-0.01833 0.07796 0.04015 0.11675 0.08996 0.11675 0.14993 0 0.05278-0.0034 0.05686-0.03404 0.04048-0.01873-0.01002-0.04433-0.03968-0.0569-0.0659-0.02601-0.05426-0.08371-0.07547-0.08371-0.03075 0 0.01576 0.01965 0.05441 0.04367 0.08589 0.05936 0.07783 0.05787 0.15202-0.0037 0.18058-0.05921 0.02749-0.05388 0.02819-0.13236-0.01729zm1.9479-0.01764c-0.0096-0.01202-0.03535-0.07133-0.05719-0.13184-0.02944-0.08158-0.03461-0.11509-0.02001-0.12968 0.01459-0.01459 0.03101 0.0051 0.06356 0.07618 0.05161 0.11274 0.07378 0.20718 0.04863 0.20718-0.0096 0-0.02538-0.0098-0.03501-0.02184zm0.77772-0.68989c-0.12052-0.10675-0.15555-0.16156-0.10327-0.16156 0.02548 0 0.21204 0.17795 0.21204 0.20225 0 0.04022-0.03017 0.02894-0.10877-0.04069zm-2.022 0.02823c0-0.01089 9e-3 -0.04978 0.01997-0.08643 0.02511-0.08383 5.2e-5 -0.15204-0.08251-0.22452-0.11856-0.1041-0.28836-0.0842-0.38479 0.04508-0.06116 0.08199-0.08045 0.09671-0.10051 0.07667-0.02943-0.02942 0.0082-0.14222 0.07047-0.21111 0.06137-0.06792 0.18404-0.12132 0.27872-0.12132 0.06673 0 0.12089-0.06773 0.28512-0.35656 0.17749-0.31215 0.18873-0.35866 0.11346-0.46944-0.14661-0.21575-0.12178-0.48217 0.06023-0.64625 0.08638-0.07787 0.12433-0.0942 0.2961-0.12734 0.13388-0.02584 0.19785-0.06041 0.2696-0.14567 0.04385-0.05211 0.1791-0.30457 0.29545-0.55146l0.06585-0.13972-0.0434-0.0055c-0.02387-3e-3 -0.0434-0.0094-0.0434-0.01422 0-0.0048 0.06408-0.08089 0.1424-0.16913 0.19021-0.2143 0.35465-0.46608 0.30439-0.46608-4e-3 0-0.02431 0.02751-0.04509 0.06113-0.04223 0.06833-0.04948 0.07115-0.0957 0.03736-0.03094-0.02262-0.02841-0.03108 0.05218-0.17466 0.04658-0.08298 0.09166-0.15089 0.10018-0.15089 0.05418 0 0.08016 0.03946 0.09175 0.1394 0.0067 0.05781 0.01851 0.10512 0.02622 0.10512 0.0077 0 0.03026-0.02751 0.05009-0.06113 0.03823-0.06481 0.08365-0.07961 0.1015-0.03307 0.01133 0.02952-0.03326 0.13311-0.10877 0.25274-0.04205 0.06662-0.04747 0.06968-0.08213 0.04667-0.02041-0.01355-0.04614-0.05147-0.05718-0.08425l-0.02007-0.0596-0.03968 0.10468c-0.03327 0.08772-0.1082 0.36761-0.14842 0.55434l-0.01033 0.04796-0.04822-0.05396-0.04822-0.05397-0.16863 0.34658c-0.09275 0.19062-0.17702 0.37888-0.18727 0.41836-0.02377 0.0915-0.0029 0.20531 0.06543 0.35762 0.02839 0.06326 0.05702 0.14686 0.06358 0.18579 0.02423 0.14342-0.05522 0.30718-0.17922 0.36934-0.03546 0.01778-0.13522 0.04125-0.22168 0.05215-0.20599 0.02597-0.29629 0.07223-0.36408 0.1865-0.14783 0.24918-0.25595 0.45708-0.25595 0.49216 0 0.0217 0.02751 0.0913 0.06113 0.15468 0.07408 0.13964 0.08289 0.25976 0.02501 0.34105-0.03539 0.0497-0.1036 0.07005-0.1036 0.03092zm0.5486-1.2945c-0.02326-0.04108-0.0831-0.10043-0.1019-0.10106-0.0371-0.0013-0.11357-0.07921-0.14015-0.1429-0.05958-0.14278-0.0064-0.28949 0.13017-0.35959 0.09502-0.04875 0.1867-0.04103 0.28032 0.02362 0.06108 0.04218 0.17372 0.05903 0.17372 0.02598 0-0.02978-0.11469-0.13273-0.18505-0.16612-0.12127-0.05754-0.30554-0.02761-0.4059 0.06595-0.0227 0.02116-0.06069 0.07665-0.08444 0.12331-0.12272 0.2411 0.03439 0.55215 0.27909 0.55254 0.04818 6.7e-5 0.06311-0.0059 0.05417-0.02173zm0.32048-0.03047c0.11711-0.0714 0.16317-0.23822 0.0968-0.35058-0.07568-0.1281-0.28139-0.08609-0.36497 0.07453-0.06898 0.13257 0.01571 0.31095 0.14756 0.31082 0.03503-3.6e-5 0.0893-0.01568 0.12061-0.03477zm-0.43437-0.20532c-0.04975-0.1289-0.0058-0.23536 0.11103-0.26857 0.1034-0.02942 0.11532-0.04581 0.04313-0.05935-0.07943-0.0149-0.14758 0.01744-0.1996 0.09472-0.04963 0.07374-0.05082 0.14601-0.0037 0.22241 0.04381 0.07088 0.07487 0.07772 0.04903 0.01079zm-1.8812 1.4598c0.0033-0.02208 0.05144-0.07298 0.11573-0.12226 0.11743-0.09001 0.14912-0.10238 0.13992-0.05461-0.0057 0.02901-0.2183 0.21367-0.24692 0.21436-0.0078 1.99e-4 -0.01181-0.01668-0.0087-0.03748zm2.3052-0.58243c-0.08389-0.07059-0.16554-0.09537-0.36787-0.11163-0.27011-0.02172-0.31031-0.05283-0.06914-0.05352 0.39126-0.0012 0.66567-0.16348 0.82157-0.4861 0.05037-0.10424 0.05727-0.13698 0.06331-0.30038 0.0082-0.22241-0.02649-0.34534-0.14917-0.52819-0.04381-0.06531-0.0744-0.124-0.06798-0.13043 0.0064-0.0064 0.04994 0.02598 0.09669 0.07202 0.08064 0.07943 0.09142 0.08443 0.21018 0.09746 0.06886 0.0076 0.12977 0.01832 0.13537 0.02392 0.0057 0.0057-0.01823 0.04163-0.05296 0.08007-0.0802 0.08877-0.09022 0.12705-0.09022 0.34459 0 0.22048 0.01306 0.24142 0.22807 0.3656 0.18525 0.10699 0.2079 0.13988 0.0843 0.12238-0.34587-0.04897-0.35499-0.0492-0.41795-0.01029-0.07491 0.04629-0.24564 0.23307-0.28694 0.3139-0.01718 0.03362-0.03683 0.10239-0.04368 0.15282-0.0069 0.05044-0.01897 0.09169-0.02694 0.09169-0.0079 0-0.03796-0.01976-0.06666-0.0439zm1.7332-0.15528c-0.0058-0.01508-0.0019-0.05228 0.0087-0.08266 0.04152-0.11909-0.0053-0.14736-0.05368-0.03236-0.02049 0.04877-0.03991 0.06968-0.06472 0.06968-0.03402 0-0.03442-0.0029-0.01003-0.07205 0.03335-0.09454 0.03207-0.12006-0.0061-0.12006-0.02119 0-0.04351 0.02851-0.06837 0.08736-0.02846 0.06735-0.04354 0.08481-0.0659 0.07622-0.03277-0.01257-0.0289-0.03901 0.02777-0.19049 0.02574-0.0688 0.04477-0.09535 0.06836-0.09535 0.03533 0 0.27884 0.08466 0.30211 0.10502 0.01853 0.01622-0.07746 0.26546-0.10587 0.27489-0.01201 0.0039-0.02657-0.0051-0.03235-0.02019zm-4.286-0.17421c0-0.03947 0.28128-0.12973 0.29452-0.09451 0.01037 0.02761-0.01749 0.04353-0.14353 0.08203-0.14143 0.04318-0.15098 0.04398-0.15098 0.01249zm1.5709-0.05879c-0.08141-0.05515-0.11207-0.06542-0.21299-0.07134-0.12246-0.0072-0.14646-0.02746-0.08893-0.07507 0.06243-0.05166 0.09256-0.15726 0.09158-0.32089-0.0015-0.25507-0.04351-0.32245-0.27632-0.44358-0.22686-0.11802-0.21767-0.12166 0.19944-0.07877 0.10027 0.01031 0.10804 0.0082 0.18008-0.04912 0.04141-0.03294 0.13664-0.12786 0.21164-0.21093 0.13066-0.14472 0.13686-0.15543 0.14827-0.25632 0.01294-0.11444 0.03429-0.1306 0.09043-0.06848 0.08139 0.09006 0.12538 0.10662 0.32194 0.12116 0.10454 0.0078 0.20417 0.02228 0.22142 0.03231 0.04099 0.02385 0.02844 0.02576-0.17824 0.02701-0.29807 0.0019-0.52256 0.11109-0.6924 0.33701-0.11691 0.15552-0.16072 0.30685-0.15164 0.52375 8e-3 0.19199 0.04143 0.28468 0.17155 0.4763 0.04018 0.05916 0.06994 0.11067 0.06615 0.11446-0.0038 0.0038-0.04969-0.02209-0.10199-0.05753zm2.7256-0.83088c0-0.03293 0.08752-0.06183 0.23142-0.07645 0.06758-0.0069 0.10043-0.0038 0.10043 9e-3 0 0.02143-0.14363 0.06867-0.25762 0.08473-0.06057 0.0085-0.07422 0.0053-0.07422-0.0173zm-4.2398-0.11159c-0.02763-0.0053-0.0393-0.01991-0.0393-0.04914 0-0.03831 0.0078-0.04199 0.09937-0.04681l0.09937-0.0053-0.07317-0.04828c-0.11372-0.07502-0.09234-0.13718 0.05246-0.15247l0.09269-0.0098-0.07422-0.03918c-0.05684-0.03-0.07423-0.04932-0.07423-0.08248 0-0.06124 0.03834-0.05564 0.17506 0.02559 0.14448 0.08584 0.1655 0.10923 0.14036 0.15621-0.01526 0.0285-0.03961 0.03621-0.12765 0.04041l-0.1088 0.0052 0.09151 0.05858c0.09099 0.05826 0.11124 0.09809 0.07054 0.13878-0.02018 0.02018-0.23435 0.02589-0.32399 0.0087zm3.8206-0.81589c0-0.0348 0.19208-0.20225 0.23199-0.20225 0.05134 0 0.02769 0.03577-0.08953 0.13536-0.11165 0.09487-0.14246 0.10934-0.14246 0.06689zm-3.1426-0.11067c-0.06337-0.05674-0.0907-0.09364-0.08629-0.11642 0.0055-0.02856 0.02213-0.0203 0.11562 0.05752 0.1032 0.08589 0.13728 0.14198 0.08629 0.14198-0.01258 0-0.06462-0.03739-0.11562-0.08307zm0.79706-0.59372c-0.063075-0.1413-0.075042-0.19649-0.042575-0.19649 0.02874 0 0.09757 0.14554 0.11259 0.23807 0.01477 0.09099-0.02006 0.0703-0.07001-0.04159zm0.9139-0.25325c-4.63e-4 -0.13997 0.0041-0.17029 0.02564-0.17029 0.03702 0 0.03748 0.25784 5.27e-4 0.30668-0.02312 0.03057-0.0257 0.01716-0.0262-0.13639zm-2.9875 3.1613c-1.65e-4 -0.02162-0.01192-0.11004-0.02613-0.19649-0.03001-0.1827-0.03443-0.67233-0.0082-0.90821 0.05282-0.47465 0.26856-1.0484 0.55565-1.4778 0.41627-0.62252 1.008-1.0705 1.7058-1.2916 0.31062-0.09841 0.30814-0.09703 0.16349-0.09069-0.4937 0.02165-0.93862 0.15599-1.3656 0.41233-0.67959 0.40799-1.2088 1.1605-1.3737 1.9532-0.0862 0.4145-0.09008 0.84005-0.01109 1.2193 0.06047 0.29039 0.0599 0.2894 0.20716 0.3585 0.06966 0.03269 0.13254 0.05971 0.13975 0.06005 0.0073 3.29e-4 0.01297-0.01706 0.01279-0.03867zm5.5194-2.4327c0-0.0051-0.01906-0.04639-0.04236-0.0917-0.16917-0.32904-0.54482-0.73612-0.8959-0.97087-0.19416-0.12983-0.52438-0.29103-0.62086-0.30308-0.10968-0.0137-0.07133 0.01443 0.19856 0.14571 0.5434 0.26432 0.89942 0.58423 1.2368 1.1114 0.04151 0.06483 0.08632 0.11789 0.0996 0.11789s0.02414-0.0042 0.02414-0.0093z" fill="#c30a4a" stroke-width=".017466"/></g></svg>
